HIERARCHY
ROOT Hips
{
    OFFSET 0.000000 0.000000 0.000000
    CHANNELS 6 Xposition Yposition Zposition Zrotation Xrotation Yrotation
    JOINT Spine
    {
        OFFSET -0.000000 8.312343 0.000000
        CHANNELS 3 Zrotation Xrotation Yrotation
        JOINT Spine1
        {
            OFFSET -0.000000 28.293047 0.000000
            CHANNELS 3 Zrotation Xrotation Yrotation
            JOINT Neck
            {
                OFFSET -0.000000 28.176853 2.561532
                CHANNELS 3 Zrotation Xrotation Yrotation
                JOINT Head
                {
                    OFFSET -0.000000 14.191803 -2.027400
                    CHANNELS 3 Zrotation Xrotation Yrotation
                    End Site
                    {
                        OFFSET -0.000000 25.342506 0.000000
                    }
                }
            }
            JOINT LeftShoulder
            {
                OFFSET 4.015815 26.370180 -0.268885
                CHANNELS 3 Zrotation Xrotation Yrotation
                JOINT LeftArm
                {
                    OFFSET 11.299099 0.000000 0.000000
                    CHANNELS 3 Zrotation Xrotation Yrotation
                    JOINT LeftForeArm
                    {
                        OFFSET 30.537071 0.000000 0.000000
                        CHANNELS 3 Zrotation Xrotation Yrotation
                        JOINT LeftHand
                        {
                            OFFSET 29.851767 0.000000 0.000000
                            CHANNELS 3 Zrotation Xrotation Yrotation
                            End Site
                            {
                                OFFSET 15.205504 0.000000 0.000000
                            }
                        }
                    }
                }
            }
            JOINT RightShoulder
            {
                OFFSET -4.091585 26.370180 -0.268885
                CHANNELS 3 Zrotation Xrotation Yrotation
                JOINT RightArm
                {
                    OFFSET -11.299099 0.000000 0.000000
                    CHANNELS 3 Zrotation Xrotation Yrotation
                    JOINT RightForeArm
                    {
                        OFFSET -30.537071 0.000000 0.000000
                        CHANNELS 3 Zrotation Xrotation Yrotation
                        JOINT RightHand
                        {
                            OFFSET -29.851767 0.000000 0.000000
                            CHANNELS 3 Zrotation Xrotation Yrotation
                            End Site
                            {
                                OFFSET -15.205504 0.000000 0.000000
                            }
                        }
                    }
                }
            }
        }
    }
    JOINT LeftUpLeg
    {
        OFFSET 10.137003 0.000000 0.000000
        CHANNELS 3 Zrotation Xrotation Yrotation
        JOINT LeftLeg
        {
            OFFSET -0.000000 -31.675148 0.000000
            CHANNELS 3 Zrotation Xrotation Yrotation
            JOINT LeftFoot
            {
                OFFSET -0.000000 -48.008553 0.000000
                CHANNELS 3 Zrotation Xrotation Yrotation
                JOINT LeftToeBase
                {
                    OFFSET -0.000000 -6.589051 15.205504
                    CHANNELS 3 Zrotation Xrotation Yrotation
                    End Site
                    {
                        OFFSET -0.000000 0.000000 4.054801
                    }
                }
            }
        }
    }
    JOINT RightUpLeg
    {
        OFFSET -10.137003 0.000000 0.000000
        CHANNELS 3 Zrotation Xrotation Yrotation
        JOINT RightLeg
        {
            OFFSET -0.000000 -31.675148 0.000000
            CHANNELS 3 Zrotation Xrotation Yrotation
            JOINT RightFoot
            {
                OFFSET -0.000000 -48.008553 0.000000
                CHANNELS 3 Zrotation Xrotation Yrotation
                JOINT RightToeBase
                {
                    OFFSET -0.000000 -6.589051 15.205504
                    CHANNELS 3 Zrotation Xrotation Yrotation
                    End Site
                    {
                        OFFSET -0.000000 0.000000 4.054801
                    }
                }
            }
        }
    }
}
MOTION
Frames:    8
Frame Time:    0.008333
98.952011    87.608360    -11.689296    -3.936687    -0.771290    82.857597    2.754750    -14.720877    -3.047349    3.439945    7.492764    -3.628563    -5.418618    18.973518    -4.729767    7.648574    -3.638869    -3.734352    11.058547    -4.676144    1.034774    -13.368568    -13.447958    14.130425    41.903988    -51.401230    -91.757256    42.830029    -10.457157    4.485230    -13.253971    2.252254    -1.234606    73.542343    62.358772    4.330527    0.134667    -12.039336    26.713619    -4.386228    -12.368499    7.952669    10.188508    1.342333    3.755288    -4.067193    -1.711041    10.539010    -6.927483    4.833634    21.485783    0.000000    0.000000    0.000000    -1.769702    2.823284    1.251705    2.723304    -3.252866    -3.672068    5.269943    0.131534    -9.627821    0.000000    0.000000    0.000000    
98.946671    87.597038    -11.672006    -4.006366    -0.798979    82.825020    2.818188    -14.772184    -2.986314    3.366149    7.461321    -3.571240    -5.451584    19.011501    -4.711123    7.851615    -3.549760    -3.688384    10.964339    -4.620521    1.045450    -13.671288    -13.617150    14.104300    40.873745    -50.832813    -92.628609    42.960747    -10.146303    4.589504    -13.285794    2.263512    -1.136671    73.705765    62.102440    4.128606    0.150502    -12.062929    26.758650    -4.486558    -12.410824    8.166182    10.249760    1.267830    3.855295    -4.085201    -1.682717    10.524982    -6.911379    4.779544    21.428099    0.000000    0.000000    0.000000    -1.722483    2.763389    1.253911    2.722764    -3.271007    -3.669280    5.286183    0.136803    -9.612125    0.000000    0.000000    0.000000    
98.957741    87.590317    -11.657209    -3.993603    -0.795195    82.813400    2.840768    -14.741084    -2.920565    3.262482    7.404500    -3.499263    -5.387125    19.148634    -4.717339    7.955444    -3.576999    -3.680429    10.924612    -4.528161    0.999568    -14.000120    -13.997345    14.240195    39.242359    -49.969292    -94.072609    43.107796    -9.754275    4.653778    -13.238779    2.307887    -1.110189    73.716827    61.899586    4.000047    0.122428    -12.016878    26.853682    -4.450489    -12.357850    8.217464    10.256698    1.294045    3.876037    -4.097386    -1.684957    10.489948    -6.904994    4.763543    21.473883    0.000000    0.000000    0.000000    -1.729623    2.812531    1.244623    2.736858    -3.318868    -3.655958    5.289401    0.128948    -9.597919    0.000000    0.000000    0.000000    
98.956772    87.594765    -11.649253    -4.033458    -0.792677    82.796013    2.891974    -14.775117    -2.874278    3.141845    7.379286    -3.451958    -5.329249    19.270557    -4.664875    8.025428    -3.618674    -3.615404    10.897778    -4.467748    1.034932    -14.568577    -13.855632    14.430150    38.458458    -49.471371    -94.736214    43.085949    -9.302382    5.183601    -13.184036    2.312890    -1.014325    73.677681    61.662155    3.916934    0.129302    -11.937448    26.909157    -4.485376    -12.286061    8.306246    10.212792    1.252842    3.948920    -4.007892    -1.699772    10.694880    -6.959973    4.850656    21.246721    0.000000    0.000000    0.000000    -1.720849    2.775927    1.188877    2.739859    -3.327794    -3.648622    5.495379    0.168252    -9.588832    0.000000    0.000000    0.000000    
98.956001    87.595291    -11.641392    -4.063917    -0.794359    82.762955    2.929812    -14.774865    -2.804950    3.060647    7.320670    -3.380723    -5.239997    19.340868    -4.671443    8.006163    -3.547292    -3.631459    10.857409    -4.369227    1.014578    -14.942695    -14.053870    14.429823    36.996937    -48.572495    -95.859207    43.228992    -8.902308    5.501955    -13.156501    2.334979    -0.989845    73.610664    61.514236    3.866415    0.147667    -11.958985    26.991367    -4.533029    -12.317068    8.349618    10.218423    1.228052    3.999493    -3.998882    -1.691193    10.674827    -6.958891    4.865319    21.243053    0.000000    0.000000    0.000000    -1.712269    2.749996    1.163460    2.740158    -3.342926    -3.610391    5.503219    0.196417    -9.570461    0.000000    0.000000    0.000000    
98.952377    87.596489    -11.633550    -4.103553    -0.793299    82.721985    2.966724    -14.800952    -2.757693    2.990237    7.308856    -3.334106    -5.171315    19.436945    -4.633704    7.951801    -3.610466    -3.600032    10.781393    -4.236716    1.030034    -15.638115    -13.385498    14.706155    36.656212    -48.393307    -95.868675    43.614651    -8.904562    5.958535    -13.141211    2.333749    -0.936943    73.516273    61.448364    3.861021    0.111158    -12.019607    26.985455    -4.563752    -12.378506    8.536090    10.217081    1.205273    4.033472    -3.986668    -1.710980    10.724330    -6.982907    4.889762    21.237644    0.000000    0.000000    0.000000    -1.696944    2.712996    1.124831    2.735888    -3.365851    -3.625439    5.507817    0.240358    -9.493972    0.000000    0.000000    0.000000    
98.946335    87.598160    -11.628543    -4.134933    -0.793173    82.663315    3.007799    -14.768879    -2.701575    2.927887    7.210174    -3.275959    -5.119856    19.480345    -4.557643    7.877622    -3.528434    -3.539768    10.690182    -4.183403    1.100728    -16.464010    -12.804605    14.844468    36.141266    -48.051201    -96.016151    43.943199    -8.844302    6.288063    -13.105145    2.339971    -0.872469    73.392067    61.428242    3.833577    0.023335    -12.189807    27.124973    -4.446875    -12.513249    8.374954    10.214703    1.199692    4.067949    -3.972972    -1.730513    10.742943    -7.010361    4.889733    21.258720    0.000000    0.000000    0.000000    -1.694671    2.675581    1.119435    2.744900    -3.382601    -3.633226    5.505663    0.275823    -9.433698    0.000000    0.000000    0.000000    
98.945320    87.597443    -11.618937    -4.156604    -0.794997    82.616386    3.064904    -14.792936    -2.680646    2.819624    7.231518    -3.256826    -5.112206    19.555132    -4.407715    7.894633    -3.586258    -3.380123    10.565572    -4.056958    1.236454    -17.367826    -11.226082    15.174308    36.928455    -48.513195    -94.861137    44.912178    -9.011381    7.076727    -13.040077    2.291884    -0.775433    73.198997    61.308132    3.894273    -0.087704    -12.301832    27.138311    -3.962323    -12.568192    8.489067    10.215346    1.206168    4.099271    -3.960117    -1.758685    10.768575    -7.009143    4.915431    21.255827    0.000000    0.000000    0.000000    -1.684613    2.669215    1.111536    2.746402    -3.415163    -3.627060    5.503584    0.307744    -9.401960    0.000000    0.000000    0.000000    
